<mxfile host="Electron" agent="Mozilla/5.0 (Macintosh; Intel Mac OS X 10_15_7) AppleWebKit/537.36 (KHTML, like Gecko) draw.io/28.1.2 Chrome/138.0.7204.243 Electron/37.4.0 Safari/537.36" version="28.1.2">
  <diagram name="Page-1" id="84oDXBN8hn1t33g_E6jV">
    <mxGraphModel dx="1319" dy="930" grid="0" gridSize="10" guides="1" tooltips="1" connect="1" arrows="1" fold="1" page="0" pageScale="1" pageWidth="1169" pageHeight="1654" math="0" shadow="0">
      <root>
        <mxCell id="0" />
        <mxCell id="1" parent="0" />
        <object label="&lt;font&gt;VPC&amp;nbsp; &amp;nbsp;CIDR:10.0.0.0/16&amp;nbsp; &amp;nbsp; &amp;nbsp;Availability zone: ca-central-1a&lt;/font&gt;" id="Z7gDHbM0TZHEakQ3zrdP-27">
          <mxCell style="points=[[0,0],[0.25,0],[0.5,0],[0.75,0],[1,0],[1,0.25],[1,0.5],[1,0.75],[1,1],[0.75,1],[0.5,1],[0.25,1],[0,1],[0,0.75],[0,0.5],[0,0.25]];outlineConnect=0;gradientColor=none;html=1;whiteSpace=wrap;fontSize=12;fontStyle=0;container=1;pointerEvents=0;collapsible=0;recursiveResize=0;shape=mxgraph.aws4.group;grIcon=mxgraph.aws4.group_vpc2;strokeColor=#8C4FFF;fillColor=default;verticalAlign=top;align=left;spacingLeft=30;fontColor=#AAB7B8;dashed=1;" vertex="1" parent="1">
            <mxGeometry x="420" y="808" width="677" height="274" as="geometry" />
          </mxCell>
        </object>
        <mxCell id="Z7gDHbM0TZHEakQ3zrdP-29" value="Public subnet CIDR: 10.0.1.0/24" style="points=[[0,0],[0.25,0],[0.5,0],[0.75,0],[1,0],[1,0.25],[1,0.5],[1,0.75],[1,1],[0.75,1],[0.5,1],[0.25,1],[0,1],[0,0.75],[0,0.5],[0,0.25]];outlineConnect=0;gradientColor=none;html=1;whiteSpace=wrap;fontSize=12;fontStyle=0;container=1;pointerEvents=0;collapsible=0;recursiveResize=0;shape=mxgraph.aws4.group;grIcon=mxgraph.aws4.group_security_group;grStroke=0;strokeColor=#7AA116;fillColor=#F2F6E8;verticalAlign=top;align=left;spacingLeft=30;fontColor=#248814;dashed=0;" vertex="1" parent="Z7gDHbM0TZHEakQ3zrdP-27">
          <mxGeometry x="49" y="42" width="212" height="148" as="geometry" />
        </mxCell>
        <mxCell id="Z7gDHbM0TZHEakQ3zrdP-18" value="" style="sketch=0;points=[[0,0,0],[0.25,0,0],[0.5,0,0],[0.75,0,0],[1,0,0],[0,1,0],[0.25,1,0],[0.5,1,0],[0.75,1,0],[1,1,0],[0,0.25,0],[0,0.5,0],[0,0.75,0],[1,0.25,0],[1,0.5,0],[1,0.75,0]];outlineConnect=0;fontColor=#232F3E;fillColor=#ED7100;strokeColor=#ffffff;dashed=0;verticalLabelPosition=bottom;verticalAlign=top;align=center;html=1;fontSize=12;fontStyle=0;aspect=fixed;shape=mxgraph.aws4.resourceIcon;resIcon=mxgraph.aws4.ec2;" vertex="1" parent="Z7gDHbM0TZHEakQ3zrdP-29">
          <mxGeometry x="40" y="40" width="50" height="50" as="geometry" />
        </mxCell>
        <mxCell id="Z7gDHbM0TZHEakQ3zrdP-36" value="" style="outlineConnect=0;dashed=0;verticalLabelPosition=bottom;verticalAlign=top;align=center;html=1;shape=mxgraph.aws3.vpc_nat_gateway;fillColor=#F58536;gradientColor=none;rotation=-90;" vertex="1" parent="Z7gDHbM0TZHEakQ3zrdP-29">
          <mxGeometry x="125" y="36.25" width="56" height="57.5" as="geometry" />
        </mxCell>
        <mxCell id="Z7gDHbM0TZHEakQ3zrdP-54" value="NAT with EIP&lt;div&gt;&lt;br&gt;&lt;/div&gt;" style="text;html=1;align=center;verticalAlign=middle;resizable=0;points=[];autosize=1;strokeColor=none;fillColor=none;" vertex="1" parent="Z7gDHbM0TZHEakQ3zrdP-29">
          <mxGeometry x="124" y="107" width="88" height="41" as="geometry" />
        </mxCell>
        <mxCell id="Z7gDHbM0TZHEakQ3zrdP-55" value="Bastion&amp;nbsp;&lt;div&gt;EC2&lt;div&gt;&lt;font style=&quot;font-size: 9px;&quot;&gt;(Ubuntu 24.04)&lt;/font&gt;&lt;/div&gt;&lt;/div&gt;" style="text;html=1;align=center;verticalAlign=middle;resizable=0;points=[];autosize=1;strokeColor=none;fillColor=none;" vertex="1" parent="Z7gDHbM0TZHEakQ3zrdP-29">
          <mxGeometry x="-9" y="90" width="78" height="55" as="geometry" />
        </mxCell>
        <mxCell id="Z7gDHbM0TZHEakQ3zrdP-41" value="" style="edgeStyle=orthogonalEdgeStyle;html=1;endArrow=none;elbow=vertical;startArrow=block;startFill=1;strokeColor=#545B64;rounded=0;entryX=0.5;entryY=1;entryDx=0;entryDy=0;entryPerimeter=0;exitX=0;exitY=0.5;exitDx=0;exitDy=0;exitPerimeter=0;dashed=1;dashPattern=1 1;" edge="1" parent="Z7gDHbM0TZHEakQ3zrdP-27" source="Z7gDHbM0TZHEakQ3zrdP-36" target="Z7gDHbM0TZHEakQ3zrdP-14">
          <mxGeometry width="100" relative="1" as="geometry">
            <mxPoint x="357" y="206" as="sourcePoint" />
            <mxPoint x="464" y="210" as="targetPoint" />
          </mxGeometry>
        </mxCell>
        <mxCell id="Z7gDHbM0TZHEakQ3zrdP-42" value="" style="edgeStyle=orthogonalEdgeStyle;html=1;endArrow=none;elbow=vertical;startArrow=block;startFill=1;strokeColor=#545B64;rounded=0;entryX=0.5;entryY=1;entryDx=0;entryDy=0;entryPerimeter=0;exitX=0;exitY=0.5;exitDx=0;exitDy=0;exitPerimeter=0;dashed=1;dashPattern=1 1;" edge="1" parent="Z7gDHbM0TZHEakQ3zrdP-27" source="Z7gDHbM0TZHEakQ3zrdP-36" target="Z7gDHbM0TZHEakQ3zrdP-13">
          <mxGeometry width="100" relative="1" as="geometry">
            <mxPoint x="380" y="146" as="sourcePoint" />
            <mxPoint x="612" y="143" as="targetPoint" />
          </mxGeometry>
        </mxCell>
        <mxCell id="Z7gDHbM0TZHEakQ3zrdP-43" value="" style="edgeStyle=orthogonalEdgeStyle;html=1;endArrow=none;elbow=vertical;startArrow=block;startFill=1;strokeColor=#545B64;rounded=0;entryX=0.5;entryY=1;entryDx=0;entryDy=0;entryPerimeter=0;exitX=0;exitY=0.5;exitDx=0;exitDy=0;exitPerimeter=0;dashed=1;dashPattern=1 1;" edge="1" parent="Z7gDHbM0TZHEakQ3zrdP-27" source="Z7gDHbM0TZHEakQ3zrdP-36" target="Z7gDHbM0TZHEakQ3zrdP-15">
          <mxGeometry width="100" relative="1" as="geometry">
            <mxPoint x="458" y="139" as="sourcePoint" />
            <mxPoint x="774" y="136" as="targetPoint" />
          </mxGeometry>
        </mxCell>
        <mxCell id="Z7gDHbM0TZHEakQ3zrdP-44" value="" style="edgeStyle=orthogonalEdgeStyle;html=1;endArrow=none;elbow=vertical;startArrow=block;startFill=1;strokeColor=#545B64;rounded=0;entryX=0.5;entryY=1;entryDx=0;entryDy=0;entryPerimeter=0;exitX=0;exitY=0.5;exitDx=0;exitDy=0;exitPerimeter=0;dashed=1;dashPattern=1 1;" edge="1" parent="Z7gDHbM0TZHEakQ3zrdP-27" source="Z7gDHbM0TZHEakQ3zrdP-36" target="Z7gDHbM0TZHEakQ3zrdP-9">
          <mxGeometry width="100" relative="1" as="geometry">
            <mxPoint x="572" y="144" as="sourcePoint" />
            <mxPoint x="963" y="141" as="targetPoint" />
          </mxGeometry>
        </mxCell>
        <mxCell id="Z7gDHbM0TZHEakQ3zrdP-37" value="" style="outlineConnect=0;dashed=0;verticalLabelPosition=bottom;verticalAlign=top;align=center;html=1;shape=mxgraph.aws3.internet_gateway;fillColor=#F58536;gradientColor=none;" vertex="1" parent="Z7gDHbM0TZHEakQ3zrdP-27">
          <mxGeometry x="-36" y="89" width="69" height="72" as="geometry" />
        </mxCell>
        <mxCell id="Z7gDHbM0TZHEakQ3zrdP-46" style="edgeStyle=orthogonalEdgeStyle;rounded=0;orthogonalLoop=1;jettySize=auto;html=1;entryX=0.5;entryY=1;entryDx=0;entryDy=0;entryPerimeter=0;dashed=1;dashPattern=1 1;" edge="1" parent="Z7gDHbM0TZHEakQ3zrdP-27" source="Z7gDHbM0TZHEakQ3zrdP-18" target="Z7gDHbM0TZHEakQ3zrdP-37">
          <mxGeometry relative="1" as="geometry">
            <Array as="points">
              <mxPoint x="114" y="181" />
              <mxPoint x="2" y="181" />
              <mxPoint x="2" y="161" />
            </Array>
          </mxGeometry>
        </mxCell>
        <mxCell id="Z7gDHbM0TZHEakQ3zrdP-47" style="edgeStyle=orthogonalEdgeStyle;rounded=0;orthogonalLoop=1;jettySize=auto;html=1;entryX=0.5;entryY=1;entryDx=0;entryDy=0;entryPerimeter=0;dashed=1;dashPattern=1 1;exitX=1;exitY=0.5;exitDx=0;exitDy=0;exitPerimeter=0;strokeColor=none;" edge="1" parent="Z7gDHbM0TZHEakQ3zrdP-27" source="Z7gDHbM0TZHEakQ3zrdP-36" target="Z7gDHbM0TZHEakQ3zrdP-37">
          <mxGeometry relative="1" as="geometry">
            <mxPoint x="173" y="104" as="sourcePoint" />
            <Array as="points">
              <mxPoint x="173" y="79" />
              <mxPoint x="173" y="181" />
              <mxPoint x="1" y="181" />
              <mxPoint x="1" y="161" />
            </Array>
          </mxGeometry>
        </mxCell>
        <mxCell id="Z7gDHbM0TZHEakQ3zrdP-50" value="" style="edgeStyle=orthogonalEdgeStyle;html=1;endArrow=none;elbow=vertical;startArrow=block;startFill=1;strokeColor=#545B64;rounded=0;entryX=0.5;entryY=0;entryDx=0;entryDy=0;entryPerimeter=0;exitX=0.5;exitY=1;exitDx=0;exitDy=0;exitPerimeter=0;dashed=1;dashPattern=1 1;" edge="1" parent="Z7gDHbM0TZHEakQ3zrdP-27" source="Z7gDHbM0TZHEakQ3zrdP-37" target="Z7gDHbM0TZHEakQ3zrdP-36">
          <mxGeometry width="100" relative="1" as="geometry">
            <mxPoint x="177" y="221" as="sourcePoint" />
            <mxPoint x="277" y="221" as="targetPoint" />
            <Array as="points">
              <mxPoint x="2" y="161" />
              <mxPoint x="2" y="181" />
              <mxPoint x="173" y="181" />
            </Array>
          </mxGeometry>
        </mxCell>
        <mxCell id="Z7gDHbM0TZHEakQ3zrdP-59" value="AWS Cloud" style="points=[[0,0],[0.25,0],[0.5,0],[0.75,0],[1,0],[1,0.25],[1,0.5],[1,0.75],[1,1],[0.75,1],[0.5,1],[0.25,1],[0,1],[0,0.75],[0,0.5],[0,0.25]];outlineConnect=0;gradientColor=none;html=1;whiteSpace=wrap;fontSize=12;fontStyle=0;container=1;pointerEvents=0;collapsible=0;recursiveResize=0;shape=mxgraph.aws4.group;grIcon=mxgraph.aws4.group_aws_cloud;strokeColor=#232F3E;fillColor=none;verticalAlign=top;align=left;spacingLeft=30;fontColor=#232F3E;dashed=0;" vertex="1" parent="Z7gDHbM0TZHEakQ3zrdP-27">
          <mxGeometry x="-45" y="-36" width="722" height="310" as="geometry" />
        </mxCell>
        <mxCell id="Z7gDHbM0TZHEakQ3zrdP-28" value="Private subnet CIDR: 10.0.2.0/24" style="points=[[0,0],[0.25,0],[0.5,0],[0.75,0],[1,0],[1,0.25],[1,0.5],[1,0.75],[1,1],[0.75,1],[0.5,1],[0.25,1],[0,1],[0,0.75],[0,0.5],[0,0.25]];outlineConnect=0;gradientColor=none;html=1;whiteSpace=wrap;fontSize=12;fontStyle=0;container=1;pointerEvents=0;collapsible=0;recursiveResize=0;shape=mxgraph.aws4.group;grIcon=mxgraph.aws4.group_security_group;grStroke=0;strokeColor=#00A4A6;fillColor=#E6F6F7;verticalAlign=top;align=left;spacingLeft=30;fontColor=#147EBA;dashed=0;" vertex="1" parent="Z7gDHbM0TZHEakQ3zrdP-59">
          <mxGeometry x="342" y="83" width="372" height="146" as="geometry" />
        </mxCell>
        <mxCell id="Z7gDHbM0TZHEakQ3zrdP-9" value="" style="sketch=0;points=[[0,0,0],[0.25,0,0],[0.5,0,0],[0.75,0,0],[1,0,0],[0,1,0],[0.25,1,0],[0.5,1,0],[0.75,1,0],[1,1,0],[0,0.25,0],[0,0.5,0],[0,0.75,0],[1,0.25,0],[1,0.5,0],[1,0.75,0]];outlineConnect=0;fontColor=#232F3E;fillColor=#ED7100;strokeColor=#ffffff;dashed=0;verticalLabelPosition=bottom;verticalAlign=top;align=center;html=1;fontSize=12;fontStyle=0;aspect=fixed;shape=mxgraph.aws4.resourceIcon;resIcon=mxgraph.aws4.ec2;" vertex="1" parent="Z7gDHbM0TZHEakQ3zrdP-28">
          <mxGeometry x="269" y="40" width="50" height="50" as="geometry" />
        </mxCell>
        <mxCell id="Z7gDHbM0TZHEakQ3zrdP-15" value="" style="sketch=0;points=[[0,0,0],[0.25,0,0],[0.5,0,0],[0.75,0,0],[1,0,0],[0,1,0],[0.25,1,0],[0.5,1,0],[0.75,1,0],[1,1,0],[0,0.25,0],[0,0.5,0],[0,0.75,0],[1,0.25,0],[1,0.5,0],[1,0.75,0]];outlineConnect=0;fontColor=#232F3E;fillColor=#ED7100;strokeColor=#ffffff;dashed=0;verticalLabelPosition=bottom;verticalAlign=top;align=center;html=1;fontSize=12;fontStyle=0;aspect=fixed;shape=mxgraph.aws4.resourceIcon;resIcon=mxgraph.aws4.ec2;" vertex="1" parent="Z7gDHbM0TZHEakQ3zrdP-28">
          <mxGeometry x="188" y="40" width="50" height="50" as="geometry" />
        </mxCell>
        <mxCell id="Z7gDHbM0TZHEakQ3zrdP-13" value="" style="sketch=0;points=[[0,0,0],[0.25,0,0],[0.5,0,0],[0.75,0,0],[1,0,0],[0,1,0],[0.25,1,0],[0.5,1,0],[0.75,1,0],[1,1,0],[0,0.25,0],[0,0.5,0],[0,0.75,0],[1,0.25,0],[1,0.5,0],[1,0.75,0]];outlineConnect=0;fontColor=#232F3E;fillColor=#ED7100;strokeColor=#ffffff;dashed=0;verticalLabelPosition=bottom;verticalAlign=top;align=center;html=1;fontSize=12;fontStyle=0;aspect=fixed;shape=mxgraph.aws4.resourceIcon;resIcon=mxgraph.aws4.ec2;" vertex="1" parent="Z7gDHbM0TZHEakQ3zrdP-28">
          <mxGeometry x="107" y="40" width="50" height="50" as="geometry" />
        </mxCell>
        <mxCell id="Z7gDHbM0TZHEakQ3zrdP-14" value="" style="sketch=0;points=[[0,0,0],[0.25,0,0],[0.5,0,0],[0.75,0,0],[1,0,0],[0,1,0],[0.25,1,0],[0.5,1,0],[0.75,1,0],[1,1,0],[0,0.25,0],[0,0.5,0],[0,0.75,0],[1,0.25,0],[1,0.5,0],[1,0.75,0]];outlineConnect=0;fontColor=#232F3E;fillColor=#ED7100;strokeColor=#ffffff;dashed=0;verticalLabelPosition=bottom;verticalAlign=top;align=center;html=1;fontSize=12;fontStyle=0;aspect=fixed;shape=mxgraph.aws4.resourceIcon;resIcon=mxgraph.aws4.ec2;" vertex="1" parent="Z7gDHbM0TZHEakQ3zrdP-28">
          <mxGeometry x="23" y="40" width="50" height="50" as="geometry" />
        </mxCell>
        <mxCell id="Z7gDHbM0TZHEakQ3zrdP-57" value="Private nodes group: Debian 12 x4&amp;nbsp; no public IP" style="text;html=1;align=center;verticalAlign=middle;resizable=0;points=[];autosize=1;strokeColor=none;fillColor=none;" vertex="1" parent="Z7gDHbM0TZHEakQ3zrdP-28">
          <mxGeometry x="28" y="100" width="272" height="26" as="geometry" />
        </mxCell>
        <mxCell id="Z7gDHbM0TZHEakQ3zrdP-64" value="" style="edgeStyle=orthogonalEdgeStyle;html=1;endArrow=open;elbow=vertical;startArrow=open;startFill=0;endFill=0;strokeColor=#545B64;rounded=0;exitX=1;exitY=0.5;exitDx=0;exitDy=0;exitPerimeter=0;entryX=0;entryY=0.5;entryDx=0;entryDy=0;entryPerimeter=0;dashed=1;dashPattern=1 1;" edge="1" parent="Z7gDHbM0TZHEakQ3zrdP-28" source="Z7gDHbM0TZHEakQ3zrdP-14" target="Z7gDHbM0TZHEakQ3zrdP-13">
          <mxGeometry width="100" relative="1" as="geometry">
            <mxPoint x="-145" y="172" as="sourcePoint" />
            <mxPoint x="-45" y="172" as="targetPoint" />
          </mxGeometry>
        </mxCell>
        <mxCell id="Z7gDHbM0TZHEakQ3zrdP-66" value="" style="edgeStyle=orthogonalEdgeStyle;html=1;endArrow=open;elbow=vertical;startArrow=open;startFill=0;endFill=0;strokeColor=#545B64;rounded=0;exitX=1;exitY=0.5;exitDx=0;exitDy=0;exitPerimeter=0;entryX=0;entryY=0.5;entryDx=0;entryDy=0;entryPerimeter=0;dashed=1;dashPattern=1 1;" edge="1" parent="Z7gDHbM0TZHEakQ3zrdP-28" source="Z7gDHbM0TZHEakQ3zrdP-13" target="Z7gDHbM0TZHEakQ3zrdP-15">
          <mxGeometry width="100" relative="1" as="geometry">
            <mxPoint x="-145" y="172" as="sourcePoint" />
            <mxPoint x="-45" y="172" as="targetPoint" />
          </mxGeometry>
        </mxCell>
        <mxCell id="Z7gDHbM0TZHEakQ3zrdP-68" value="Intra Security groups Allowed" style="text;html=1;align=center;verticalAlign=middle;resizable=0;points=[];autosize=1;strokeColor=none;fillColor=none;" vertex="1" parent="Z7gDHbM0TZHEakQ3zrdP-28">
          <mxGeometry x="39" y="120" width="173" height="26" as="geometry" />
        </mxCell>
        <mxCell id="Z7gDHbM0TZHEakQ3zrdP-70" value="" style="edgeStyle=orthogonalEdgeStyle;html=1;endArrow=open;elbow=vertical;startArrow=open;startFill=0;endFill=0;strokeColor=#545B64;rounded=0;exitX=1;exitY=0.5;exitDx=0;exitDy=0;exitPerimeter=0;entryX=0;entryY=0.5;entryDx=0;entryDy=0;entryPerimeter=0;dashed=1;dashPattern=1 1;" edge="1" parent="Z7gDHbM0TZHEakQ3zrdP-28" source="Z7gDHbM0TZHEakQ3zrdP-15" target="Z7gDHbM0TZHEakQ3zrdP-9">
          <mxGeometry width="100" relative="1" as="geometry">
            <mxPoint x="-56" y="166" as="sourcePoint" />
            <mxPoint x="44" y="166" as="targetPoint" />
          </mxGeometry>
        </mxCell>
        <mxCell id="Z7gDHbM0TZHEakQ3zrdP-45" value="IGW&lt;div&gt;&lt;br&gt;&lt;/div&gt;" style="text;html=1;align=center;verticalAlign=middle;resizable=0;points=[];autosize=1;strokeColor=none;fillColor=none;" vertex="1" parent="1">
          <mxGeometry x="375" y="968" width="42" height="41" as="geometry" />
        </mxCell>
        <mxCell id="Z7gDHbM0TZHEakQ3zrdP-67" value="" style="edgeStyle=orthogonalEdgeStyle;html=1;endArrow=block;elbow=vertical;startArrow=block;startFill=1;endFill=1;strokeColor=#545B64;rounded=0;exitX=1;exitY=0.5;exitDx=0;exitDy=0;exitPerimeter=0;entryX=0;entryY=0.5;entryDx=0;entryDy=0;entryPerimeter=0;dashed=1;dashPattern=1 1;" edge="1" parent="1">
          <mxGeometry width="100" relative="1" as="geometry">
            <mxPoint x="726" y="987" as="sourcePoint" />
            <mxPoint x="760" y="987" as="targetPoint" />
          </mxGeometry>
        </mxCell>
      </root>
    </mxGraphModel>
  </diagram>
</mxfile>
